<?xml version="1.0" encoding="UTF-8"?>
<svg xmlns="http://www.w3.org/2000/svg" xmlns:xlink="http://www.w3.org/1999/xlink" width="595.2756pt" height="841.8898pt" viewBox="0 0 595.2756 841.8898" version="1.1">
<g id="surface1">
<path style=" stroke:none;fill-rule:evenodd;fill:rgb(78.656006%,48.156738%,5.789185%);fill-opacity:1;" d="M 548.214844 259.542969 C 399.578125 286.25 311.855469 184.414063 297.640625 166.398438 C 283.433594 184.414063 195.699219 286.25 47.058594 259.542969 C 47.058594 259.542969 9.472656 575.410156 297.640625 743.929688 C 585.816406 575.40625 548.214844 259.542969 548.214844 259.542969 "/>
<path style=" stroke:none;fill-rule:evenodd;fill:rgb(10.986328%,10.441589%,30.433655%);fill-opacity:1;" d="M 58.023438 272.644531 C 57.710938 278.457031 57.425781 286.175781 57.425781 295.71875 C 57.425781 327.671875 60.574219 378.703125 76.054688 436.496094 C 110.074219 563.5 184.679688 662.25 297.640625 730.273438 C 410.605469 662.25 485.210938 563.492188 519.21875 436.496094 C 534.703125 378.703125 537.851563 327.671875 537.851563 295.71875 C 537.851563 286.175781 537.570313 278.457031 537.253906 272.644531 C 409.175781 289.871094 327.050781 216.898438 297.640625 184.492188 C 268.242188 216.898438 186.113281 289.871094 58.023438 272.644531 "/>
<path style=" stroke:none;fill-rule:evenodd;fill:rgb(100%,100%,100%);fill-opacity:1;" d="M 69.914063 289.519531 C 70.050781 322.378906 73.476563 372.605469 88.703125 429.433594 C 121.441406 551.671875 191.773438 647.863281 297.640625 715.753906 C 403.511719 647.863281 473.839844 551.671875 506.582031 429.433594 C 521.800781 372.597656 525.230469 322.378906 525.363281 289.519531 C 414.914063 295.019531 337.90625 242.585938 297.640625 205.214844 C 257.371094 242.585938 180.382813 295.019531 69.914063 289.519531 "/>
<path style=" stroke:none;fill-rule:evenodd;fill:rgb(78.656006%,48.156738%,5.789185%);fill-opacity:1;" d="M 297.636719 97.960938 L 307.757813 120.859375 L 332.859375 123.550781 L 314.207031 140.25 L 319.40625 164.953125 L 297.757813 152.375 L 275.871094 164.953125 L 281.144531 140.476563 L 262.417969 123.550781 L 287.324219 121 Z M 297.636719 97.960938 "/>
<path style=" stroke:none;fill-rule:evenodd;fill:rgb(10.986328%,10.441589%,30.433655%);fill-opacity:1;" d="M 297.644531 345.601563 C 236.371094 345.601563 186.703125 395.539063 186.703125 457.136719 C 186.703125 518.738281 236.371094 568.671875 297.640625 568.671875 C 358.914063 568.671875 408.574219 518.738281 408.574219 457.136719 C 408.578125 395.539063 358.914063 345.601563 297.640625 345.601563 Z M 297.644531 563.691406 C 239.105469 563.691406 191.65625 515.984375 191.65625 457.136719 C 191.65625 398.289063 239.105469 350.578125 297.640625 350.578125 C 356.171875 350.578125 403.625 398.289063 403.625 457.136719 C 403.625 515.984375 356.171875 563.691406 297.644531 563.691406 "/>
<path style=" stroke:none;fill-rule:evenodd;fill:rgb(78.656006%,48.156738%,5.789185%);fill-opacity:1;" d="M 297.300781 627.292969 L 299.453125 631.675781 L 304.273438 632.382813 L 300.78125 635.789063 L 301.605469 640.609375 L 297.300781 638.332031 L 292.992188 640.609375 L 293.816406 635.789063 L 290.335938 632.382813 L 295.148438 631.675781 Z M 378.964844 595.316406 L 373.570313 591.183594 L 373.914063 584.382813 L 368.335938 588.246094 L 362.007813 585.824219 L 363.941406 592.347656 L 359.683594 597.652344 L 366.464844 597.820313 L 370.164063 603.53125 L 372.414063 597.105469 Z M 338.578125 615.382813 L 333.195313 611.253906 L 333.53125 604.449219 L 327.957031 608.3125 L 321.625 605.882813 L 323.5625 612.40625 L 319.304688 617.722656 L 326.082031 617.894531 L 329.78125 623.597656 L 332.027344 617.167969 Z M 309.390625 584.128906 L 307.890625 591.738281 L 300.804688 594.804688 L 307.539063 598.597656 L 308.257813 606.320313 L 313.917969 601.046875 L 321.445313 602.753906 L 318.207031 595.710938 L 322.144531 589.035156 L 314.492188 589.953125 Z M 347.804688 581.339844 L 340.703125 586.15625 L 332.726563 583 L 335.078125 591.292969 L 329.628906 597.941406 L 338.207031 598.242188 L 342.8125 605.507813 L 345.746094 597.410156 L 354.046875 595.246094 L 347.285156 589.949219 Z M 370.753906 582.960938 L 368.257813 575.394531 L 373.046875 569.027344 L 365.101563 569.074219 L 360.5625 562.523438 L 358.15625 570.136719 L 350.566406 572.453125 L 357.015625 577.109375 L 356.863281 585.082031 L 363.25 580.359375 Z M 403.519531 581.847656 L 396.769531 577.652344 L 396.382813 569.679688 L 390.324219 574.84375 L 382.660156 572.742188 L 385.683594 580.132813 L 381.332031 586.8125 L 389.242188 586.214844 L 394.214844 592.441406 L 396.097656 584.683594 Z M 394.199219 552.335938 L 385.636719 552.585938 L 380.5625 545.625 L 378.148438 553.90625 L 370.003906 556.597656 L 377.09375 561.449219 L 377.117188 570.070313 L 383.90625 564.808594 L 392.066406 567.441406 L 389.1875 559.328125 Z M 413.011719 530.714844 L 404.140625 534.160156 L 396.269531 528.75 L 396.789063 538.320313 L 389.230469 544.171875 L 398.445313 546.628906 L 401.648438 555.648438 L 406.808594 547.601563 L 416.339844 547.332031 L 410.339844 539.910156 Z M 303.554688 609.355469 L 303.574219 614.925781 L 299.035156 618.085938 L 304.292969 619.773438 L 305.890625 625.085938 L 309.109375 620.578125 L 314.628906 620.699219 L 311.378906 616.21875 L 313.179688 610.984375 L 307.9375 612.730469 Z M 215.644531 595.316406 L 221.039063 591.183594 L 220.703125 584.382813 L 226.277344 588.246094 L 232.601563 585.824219 L 230.667969 592.347656 L 234.925781 597.652344 L 228.144531 597.820313 L 224.445313 603.53125 L 222.195313 597.105469 Z M 256.035156 615.382813 L 261.425781 611.253906 L 261.078125 604.449219 L 266.65625 608.3125 L 272.988281 605.882813 L 271.050781 612.40625 L 275.304688 617.722656 L 268.527344 617.894531 L 264.828125 623.597656 L 262.582031 617.167969 Z M 285.21875 584.128906 L 286.714844 591.738281 L 293.800781 594.804688 L 287.070313 598.597656 L 286.355469 606.320313 L 280.695313 601.046875 L 273.164063 602.753906 L 276.398438 595.710938 L 272.464844 589.035156 L 280.117188 589.953125 Z M 246.804688 581.339844 L 253.90625 586.15625 L 261.890625 583 L 259.527344 591.292969 L 264.980469 597.941406 L 256.40625 598.242188 L 251.804688 605.507813 L 248.863281 597.410156 L 240.566406 595.246094 L 247.324219 589.949219 Z M 223.851563 582.960938 L 226.347656 575.394531 L 221.5625 569.027344 L 229.507813 569.074219 L 234.046875 562.523438 L 236.445313 570.136719 L 244.042969 572.453125 L 237.59375 577.109375 L 237.746094 585.082031 L 231.359375 580.359375 Z M 191.089844 582.3125 L 197.839844 578.121094 L 198.230469 570.148438 L 204.289063 575.308594 L 211.953125 573.207031 L 208.9375 580.59375 L 213.289063 587.277344 L 205.367188 586.6875 L 200.394531 592.902344 L 198.515625 585.15625 Z M 200.414063 552.335938 L 208.980469 552.585938 L 214.042969 545.625 L 216.453125 553.90625 L 224.605469 556.597656 L 217.519531 561.449219 L 217.488281 570.070313 L 210.703125 564.808594 L 202.539063 567.441406 L 205.421875 559.328125 Z M 181.597656 530.714844 L 190.472656 534.160156 L 198.339844 528.75 L 197.824219 538.320313 L 205.375 544.171875 L 196.171875 546.628906 L 192.972656 555.648438 L 187.792969 547.601563 L 178.269531 547.332031 L 184.273438 539.910156 Z M 291.058594 609.355469 L 291.039063 614.925781 L 295.574219 618.085938 L 290.316406 619.773438 L 288.71875 625.085938 L 285.496094 620.578125 L 279.988281 620.699219 L 283.234375 616.21875 L 281.425781 610.984375 L 286.667969 612.730469 Z M 291.058594 609.355469 "/>
<path style=" stroke:none;fill-rule:evenodd;fill:rgb(78.656006%,48.156738%,5.789185%);fill-opacity:1;" d="M 298.714844 293.40625 C 298.714844 293.40625 298.714844 293.488281 298.714844 293.601563 C 298.714844 293.488281 298.714844 293.410156 298.714844 293.410156 Z M 321.941406 303.53125 C 316.003906 303.53125 314.976563 295.230469 314.976563 295.230469 C 314.976563 295.230469 314.460938 304.828125 306.453125 304.828125 C 299.046875 304.828125 298.722656 295.046875 298.714844 293.601563 C 298.710938 295.042969 298.382813 304.828125 290.972656 304.828125 C 282.96875 304.828125 282.457031 295.230469 282.457031 295.230469 C 282.457031 295.230469 281.421875 303.53125 275.488281 303.53125 C 269.542969 303.53125 266.703125 298.34375 266.703125 298.34375 L 275.226563 323.261719 L 322.199219 323.261719 L 330.722656 298.34375 C 330.722656 298.34375 327.886719 303.53125 321.941406 303.53125 "/>
<path style=" stroke:none;fill-rule:evenodd;fill:rgb(78.656006%,48.156738%,5.789185%);fill-opacity:1;" d="M 303.167969 286.019531 C 303.167969 288.488281 301.175781 290.492188 298.714844 290.492188 C 296.257813 290.492188 294.257813 288.488281 294.257813 286.019531 C 294.257813 283.542969 296.257813 281.535156 298.714844 281.535156 C 301.175781 281.535156 303.167969 283.542969 303.167969 286.019531 "/>
<path style=" stroke:none;fill-rule:evenodd;fill:rgb(78.656006%,48.156738%,5.789185%);fill-opacity:1;" d="M 286.648438 288.808594 C 286.648438 291.277344 284.660156 293.28125 282.195313 293.28125 C 279.738281 293.28125 277.738281 291.28125 277.738281 288.808594 C 277.738281 286.335938 279.738281 284.332031 282.195313 284.332031 C 284.660156 284.332031 286.648438 286.335938 286.648438 288.808594 "/>
<path style=" stroke:none;fill-rule:evenodd;fill:rgb(78.656006%,48.156738%,5.789185%);fill-opacity:1;" d="M 270.195313 292.507813 C 270.195313 294.976563 268.199219 296.984375 265.742188 296.984375 C 263.28125 296.984375 261.289063 294.976563 261.289063 292.507813 C 261.289063 290.027344 263.28125 288.027344 265.742188 288.027344 C 268.199219 288.027344 270.195313 290.027344 270.195313 292.507813 "/>
<path style=" stroke:none;fill-rule:evenodd;fill:rgb(78.656006%,48.156738%,5.789185%);fill-opacity:1;" d="M 310.78125 288.808594 C 310.78125 291.277344 312.78125 293.28125 315.230469 293.28125 C 317.6875 293.28125 319.679688 291.28125 319.679688 288.808594 C 319.683594 286.335938 317.6875 284.332031 315.230469 284.332031 C 312.78125 284.332031 310.78125 286.335938 310.78125 288.808594 "/>
<path style=" stroke:none;fill-rule:evenodd;fill:rgb(78.656006%,48.156738%,5.789185%);fill-opacity:1;" d="M 327.238281 292.507813 C 327.238281 294.976563 329.226563 296.984375 331.683594 296.984375 C 334.148438 296.984375 336.136719 294.976563 336.136719 292.507813 C 336.136719 290.027344 334.148438 288.027344 331.683594 288.027344 C 329.230469 288.027344 327.238281 290.027344 327.238281 292.507813 "/>
<path style=" stroke:none;fill-rule:evenodd;fill:rgb(78.656006%,48.156738%,5.789185%);fill-opacity:1;" d="M 297.644531 350.578125 C 239.105469 350.578125 191.65625 398.289063 191.65625 457.136719 C 191.65625 515.984375 239.105469 563.691406 297.640625 563.691406 C 356.171875 563.691406 403.625 515.984375 403.625 457.136719 C 403.625 398.289063 356.171875 350.578125 297.640625 350.578125 Z M 297.644531 535.820313 C 254.417969 535.820313 219.378906 500.597656 219.378906 457.136719 C 219.378906 413.683594 254.417969 378.457031 297.640625 378.457031 C 340.863281 378.457031 375.898438 413.683594 375.898438 457.136719 C 375.902344 500.597656 340.863281 535.820313 297.644531 535.820313 "/>
<path style=" stroke:none;fill-rule:evenodd;fill:rgb(78.656006%,48.156738%,5.789185%);fill-opacity:1;" d="M 297.640625 355.660156 C 241.898438 355.660156 196.710938 401.09375 196.710938 457.132813 C 196.710938 513.171875 241.898438 558.601563 297.640625 558.601563 C 353.378906 558.601563 398.570313 513.171875 398.570313 457.132813 C 398.570313 401.09375 353.378906 355.660156 297.640625 355.660156 Z M 297.640625 355.660156 "/>
<path style=" stroke:none;fill-rule:evenodd;fill:rgb(10.986328%,10.441589%,30.433655%);fill-opacity:1;" d="M 297.644531 378.457031 C 254.417969 378.457031 219.378906 413.683594 219.378906 457.136719 C 219.378906 500.597656 254.417969 535.820313 297.640625 535.820313 C 340.863281 535.820313 375.898438 500.597656 375.898438 457.136719 C 375.902344 413.683594 340.863281 378.457031 297.640625 378.457031 Z M 297.644531 530.097656 C 257.558594 530.097656 225.070313 497.433594 225.070313 457.136719 C 225.070313 416.84375 257.558594 384.175781 297.640625 384.175781 C 337.722656 384.171875 370.210938 416.84375 370.210938 457.136719 C 370.210938 497.433594 337.722656 530.097656 297.644531 530.097656 "/>
<path style=" stroke:none;fill-rule:evenodd;fill:rgb(61.935425%,21.678162%,8.113098%);fill-opacity:1;" d="M 439.941406 372.484375 C 439.960938 372.550781 439.988281 372.617188 440.007813 372.6875 C 439.96875 372.640625 439.945313 372.59375 439.914063 372.554688 C 439.921875 372.53125 439.933594 372.503906 439.941406 372.484375 "/>
<path style=" stroke:none;fill-rule:evenodd;fill:rgb(96.539307%,96.038818%,87.817383%);fill-opacity:1;" d="M 297.644531 530.097656 C 257.558594 530.097656 225.070313 497.433594 225.070313 457.136719 C 225.070313 416.84375 257.558594 384.175781 297.640625 384.175781 C 337.722656 384.171875 370.210938 416.84375 370.210938 457.136719 C 370.210938 497.433594 337.722656 530.097656 297.644531 530.097656 "/>
<path style=" stroke:none;fill-rule:evenodd;fill:rgb(10.986328%,10.441589%,30.433655%);fill-opacity:1;" d="M 367.644531 457.136719 C 367.644531 496.003906 336.296875 527.519531 297.640625 527.519531 C 258.984375 527.519531 227.640625 496.003906 227.640625 457.136719 C 227.640625 418.269531 258.984375 386.761719 297.640625 386.761719 C 336.296875 386.761719 367.640625 418.269531 367.644531 457.136719 "/>
<path style=" stroke:none;fill-rule:evenodd;fill:rgb(96.539307%,96.038818%,87.817383%);fill-opacity:1;" d="M 295.925781 398.976563 C 288.476563 398.976563 282.132813 400.996094 282.132813 400.996094 L 270.457031 420.550781 L 283.476563 436.542969 C 283.476563 436.542969 295.480469 434.082031 311.722656 436.542969 L 324.726563 420.550781 L 313.050781 400.996094 C 313.050781 400.996094 306.710938 398.976563 299.261719 398.976563 Z M 295.925781 398.976563 "/>
<path style=" stroke:none;fill-rule:evenodd;fill:rgb(96.539307%,96.038818%,87.817383%);fill-opacity:1;" d="M 245.855469 463.144531 C 245.855469 463.144531 256.972656 465.609375 267.308594 465.609375 C 267.308594 465.609375 271.65625 479.574219 281.992188 490.429688 C 281.992188 490.429688 277.542969 503.84375 275.097656 506.300781 C 275.097656 506.300781 254.859375 509.4375 245.296875 492.886719 C 235.734375 476.34375 242.511719 473.09375 245.855469 463.144531 "/>
<path style=" stroke:none;fill-rule:evenodd;fill:rgb(96.539307%,96.038818%,87.817383%);fill-opacity:1;" d="M 236.730469 476.542969 C 237.511719 471.964844 243.03125 461.222656 243.03125 461.222656 L 242.957031 460.78125 C 241.511719 450.945313 243.625 435.402344 243.292969 434.621094 C 242.957031 433.839844 237.058594 429.707031 237.058594 429.707031 C 237.058594 429.707031 236.5 430.148438 235.679688 431.351563 C 232.308594 439.191406 230.429688 447.84375 230.429688 456.9375 C 230.429688 463.203125 231.324219 469.269531 232.988281 475 C 234.8125 477.140625 236.730469 476.542969 236.730469 476.542969 "/>
<path style=" stroke:none;fill-rule:evenodd;fill:rgb(96.539307%,96.038818%,87.817383%);fill-opacity:1;" d="M 245.699219 430.9375 C 245.699219 430.9375 254.371094 421.429688 265.601563 419.757813 C 265.601563 419.757813 274.613281 406.007813 277.609375 400.636719 C 277.609375 400.636719 273.777344 396.21875 272.003906 394.945313 C 258.90625 400.179688 247.925781 409.613281 240.71875 421.605469 C 239.492188 423.765625 238.914063 425.121094 238.914063 425.121094 C 238.914063 425.121094 241.804688 429.148438 245.699219 430.9375 "/>
<path style=" stroke:none;fill-rule:evenodd;fill:rgb(96.539307%,96.038818%,87.817383%);fill-opacity:1;" d="M 311.601563 440.984375 C 311.601563 440.984375 323.167969 459.433594 324.167969 463.902344 C 324.167969 463.902344 320.945313 476.089844 309.824219 487.832031 C 309.824219 487.832031 305.523438 488.1875 300.484375 488.378906 L 300.484375 488.496094 C 299.539063 488.496094 298.5625 488.488281 297.59375 488.460938 C 296.628906 488.488281 295.65625 488.496094 294.703125 488.496094 L 294.703125 488.378906 C 289.660156 488.1875 285.355469 487.832031 285.355469 487.832031 C 274.242188 476.089844 271.011719 463.902344 271.011719 463.902344 C 272.015625 459.433594 283.582031 440.984375 283.582031 440.984375 C 283.582031 440.984375 292.25 439.664063 299.117188 439.664063 C 305.988281 439.664063 311.601563 440.984375 311.601563 440.984375 "/>
<path style=" stroke:none;fill-rule:evenodd;fill:rgb(96.539307%,96.038818%,87.817383%);fill-opacity:1;" d="M 349.328125 463.144531 C 349.328125 463.144531 338.214844 465.609375 327.875 465.609375 C 327.875 465.609375 323.535156 479.574219 313.191406 490.429688 C 313.191406 490.429688 317.644531 503.84375 320.089844 506.300781 C 320.089844 506.300781 340.324219 509.4375 349.898438 492.886719 C 359.445313 476.34375 352.671875 473.09375 349.328125 463.144531 "/>
<path style=" stroke:none;fill-rule:evenodd;fill:rgb(96.539307%,96.038818%,87.817383%);fill-opacity:1;" d="M 358.457031 476.542969 C 357.675781 471.964844 352.144531 461.183594 352.144531 461.183594 L 352.226563 460.78125 C 353.675781 450.945313 351.558594 435.402344 351.898438 434.621094 C 352.226563 433.839844 358.117188 429.707031 358.117188 429.707031 C 358.121094 429.707031 358.6875 430.148438 359.511719 431.351563 C 362.878906 439.191406 364.75 447.84375 364.75 456.9375 C 364.75 463.203125 363.863281 469.269531 362.199219 475 C 360.375 477.140625 358.457031 476.542969 358.457031 476.542969 "/>
<path style=" stroke:none;fill-rule:evenodd;fill:rgb(96.539307%,96.038818%,87.817383%);fill-opacity:1;" d="M 348.867188 430.03125 C 348.867188 430.03125 340.621094 421.007813 329.953125 419.414063 C 329.953125 419.414063 321.390625 406.351563 318.542969 401.257813 C 318.542969 401.257813 322.1875 397.058594 323.878906 395.847656 C 336.3125 400.820313 346.746094 409.785156 353.589844 421.171875 C 354.753906 423.214844 355.308594 424.511719 355.308594 424.511719 C 355.3125 424.507813 352.5625 428.335938 348.867188 430.03125 "/>
<path style=" stroke:none;fill-rule:evenodd;fill:rgb(96.539307%,96.038818%,87.817383%);fill-opacity:1;" d="M 276.597656 510.410156 C 268.152344 510.300781 256.023438 506.835938 256.023438 506.835938 L 256.132813 509.796875 C 266.882813 518.636719 280.5625 524.007813 295.480469 524.257813 L 295.480469 519.890625 C 287.03125 519.226563 276.59375 510.410156 276.597656 510.410156 "/>
<path style=" stroke:none;fill-rule:evenodd;fill:rgb(96.539307%,96.038818%,87.817383%);fill-opacity:1;" d="M 339.171875 506.835938 C 339.171875 506.835938 327.050781 510.300781 318.589844 510.410156 C 318.589844 510.410156 308.203125 519.1875 299.757813 519.886719 L 299.757813 524.257813 C 314.660156 523.992188 328.3125 518.628906 339.050781 509.796875 Z M 339.171875 506.835938 "/>
<path style=" stroke:none;fill-rule:evenodd;fill:rgb(10.986328%,10.441589%,30.433655%);fill-opacity:1;" d="M 442.101563 467.210938 C 442.035156 464.8125 441.800781 462.109375 441.273438 459.054688 C 438.433594 442.464844 424.847656 433.46875 424.847656 433.46875 C 423.894531 430.859375 425.675781 426.203125 426.066406 422.472656 L 426.078125 422.472656 C 426.578125 419.808594 425.59375 417.953125 424.238281 416.410156 C 423.441406 415.476563 422.511719 414.652344 421.683594 413.875 C 419.445313 411.710938 418.863281 409.316406 419.898438 407.894531 C 420.9375 406.480469 425.433594 410.9375 431.101563 412.679688 C 435.988281 414.179688 438.347656 411.253906 438.347656 411.253906 C 433.484375 413.34375 423.222656 404.421875 430.375 402.113281 C 437.882813 399.695313 437.5625 408.085938 437.5625 408.085938 C 440.242188 401.433594 435.332031 400.683594 433.304688 399.257813 C 431.257813 397.824219 433.242188 392.84375 438.125 395.023438 C 443.019531 397.203125 445.015625 396.652344 445.015625 396.652344 C 448.753906 396.480469 447.921875 396.394531 450.757813 396.128906 C 453.117188 395.898438 452.855469 398.636719 452.855469 398.636719 C 457.683594 390.957031 446.34375 393.117188 446.34375 393.117188 C 442.023438 393.191406 443.238281 389.359375 443.238281 389.359375 C 443.480469 387.574219 443.984375 387.019531 443.984375 387.019531 C 445.042969 385.171875 447.222656 387.722656 453.597656 385.515625 C 457.257813 384.25 457.523438 382.175781 457.523438 382.175781 C 446.625 387.261719 447.042969 378.375 447.125 377.484375 C 447.210938 376.59375 448.210938 375.375 450.5625 374.523438 C 452.902344 373.664063 455.464844 370.605469 455.464844 370.605469 C 456.648438 369.167969 457.625 371.613281 456.425781 373.601563 C 455.226563 375.585938 454.929688 380.992188 459.84375 380.59375 C 464.441406 380.222656 465.050781 372.089844 465.121094 370.214844 C 464.957031 372.199219 463.257813 379.023438 460.332031 378.070313 C 457.167969 377.035156 460.066406 373.113281 460.066406 373.113281 C 462.234375 369.433594 462.25 366.496094 460.566406 364.417969 C 458.882813 362.335938 455.285156 362.519531 453.289063 364.789063 C 451.308594 367.050781 450.179688 367.753906 448.863281 366.679688 C 447.558594 365.605469 449.625 364.128906 450.574219 364.042969 C 451.519531 363.957031 452.28125 361.011719 452.484375 359.769531 C 452.683594 358.523438 453.117188 357.554688 454.230469 356.789063 C 455.34375 356.027344 457.769531 351.246094 459.84375 354.144531 C 461.933594 357.035156 462.226563 359.664063 462.226563 359.664063 C 463.671875 346.5 452.074219 350.0625 452.074219 350.0625 C 455.109375 344.277344 450.511719 341.382813 450.511719 341.382813 C 451.441406 332.792969 444.09375 330.128906 444.09375 330.128906 C 445.605469 330.972656 451.628906 336.34375 448.882813 339.03125 C 446.140625 341.714844 441.578125 338.832031 441.578125 338.832031 C 442.046875 333.453125 439.253906 331.207031 439.253906 331.207031 C 435.257813 330.292969 428.324219 336.886719 428.324219 336.886719 C 428.328125 336.886719 425.902344 335.625 418.949219 337.128906 C 411.988281 338.625 403.792969 340.527344 401.578125 340.808594 C 399.359375 341.09375 395.886719 339.914063 394.683594 340.144531 C 393.46875 340.371094 391.15625 341.289063 390.78125 343.808594 C 390.398438 346.335938 389.53125 351.070313 392.652344 353.828125 C 395.765625 356.585938 397.660156 355.40625 399.289063 355.113281 C 399.289063 355.113281 402.160156 353.894531 403.226563 354.378906 C 404.3125 354.867188 412.636719 358.667969 414.117188 360.632813 C 415.597656 362.605469 414.433594 363.460938 411.816406 364.945313 C 409.203125 366.425781 403.394531 369.410156 398.929688 370.789063 C 394.457031 372.15625 389.449219 372.929688 387.789063 374.703125 C 387.785156 374.703125 387.777344 374.710938 387.773438 374.71875 C 387.113281 375.238281 386.515625 375.875 386.003906 376.675781 C 385.28125 377.800781 384.402344 378.554688 383.46875 378.996094 C 380.875 375.550781 378.660156 372.199219 377.316406 370.457031 C 375.617188 368.253906 374.210938 367.304688 371.324219 368.222656 C 370.5 368.0625 369.535156 368.164063 368.308594 368.59375 C 366.742188 369.148438 365.515625 371.761719 363.378906 371.824219 C 362.894531 371.960938 359.824219 374.898438 358.652344 378.757813 C 357.472656 382.609375 355.738281 386.125 354.402344 389.238281 C 353.066406 392.347656 353.078125 398.386719 353.078125 398.386719 C 351.824219 401.671875 356.019531 408.953125 356.019531 408.953125 C 356.019531 408.953125 357.132813 408.246094 358.066406 407.488281 C 358.4375 408.21875 358.699219 408.667969 358.699219 408.667969 C 358.699219 408.667969 361.015625 407.210938 361.769531 406.230469 C 362.515625 405.257813 363.011719 404.222656 364.816406 403.34375 C 366.609375 402.476563 367.625 400.578125 367.558594 400.070313 C 367.496094 399.570313 364.828125 397.195313 364.828125 397.195313 C 361.171875 392.5625 362.269531 388.625 362.789063 386.34375 C 363.316406 384.0625 365.632813 378.128906 365.632813 378.128906 C 366.160156 377.1875 366.863281 376.410156 367.589844 375.890625 C 367.621094 375.917969 367.664063 375.925781 367.699219 375.972656 C 369.933594 378.363281 370.648438 382.226563 371.59375 387.046875 C 371.773438 390.367188 372.863281 395.660156 375.03125 399.121094 C 377.394531 402.882813 376.152344 408.292969 376.152344 408.292969 C 371.28125 432.421875 390.667969 446.148438 396.300781 453.929688 C 401.925781 461.707031 396.167969 465.152344 391.140625 473.960938 C 386.421875 482.21875 393.679688 495.992188 396.265625 502.820313 C 396.957031 505.417969 397.675781 508.105469 398.164063 509.660156 C 399.640625 514.378906 400.1875 514.875 398.9375 517.304688 C 397.691406 519.730469 383.453125 526.5625 379.457031 528.441406 C 375.445313 530.316406 373.582031 533.492188 373.582031 533.492188 C 368.316406 538.703125 367.753906 548.984375 367.753906 548.984375 C 372.402344 545.546875 378.085938 544.535156 378.085938 544.535156 C 380.355469 542.351563 379.460938 536.789063 379.460938 536.789063 C 382.050781 536.082031 387.160156 530.714844 392.640625 527.367188 C 398.125 524.019531 406.914063 523.847656 409.203125 523.550781 C 411.511719 523.261719 411.882813 522.078125 411.144531 518.015625 C 410.695313 515.601563 410.921875 509.351563 411.183594 505.601563 C 413.644531 509.019531 414.796875 513.734375 417.65625 518.132813 C 422.335938 525.347656 422.488281 530.164063 422.335938 533.589844 C 422.167969 537.019531 418.007813 550.421875 417.207031 552.957031 C 416.402344 555.496094 412.269531 557.792969 412.269531 557.792969 C 407.410156 559.558594 405.972656 564.867188 405.972656 564.867188 C 407.300781 566.453125 415.648438 565.140625 415.648438 565.140625 C 417.070313 565.402344 419.117188 563.875 419.117188 563.875 C 419.523438 560.300781 421.796875 556.898438 425.238281 553.894531 C 428.695313 550.898438 425.945313 545.398438 426.640625 536.894531 C 427.34375 528.390625 429.972656 526.203125 431.171875 524.707031 C 432.363281 523.199219 432.917969 520.808594 430.867188 518.699219 C 428.816406 516.582031 426.457031 513.523438 424.46875 505.984375 C 422.496094 498.441406 428.261719 498.296875 428.738281 495.179688 C 429.222656 492.050781 438.324219 491.625 439.898438 480.851563 C 439.898438 480.851563 440.832031 479.167969 441.488281 475.722656 C 443.164063 475.679688 443.945313 476.550781 443.753906 480.949219 C 443.546875 485.84375 444.617188 486.988281 445.941406 487.617188 C 447.261719 488.242188 448.855469 488.390625 451.355469 489.910156 C 453.855469 491.4375 451.542969 495.480469 449.90625 496.839844 C 448.277344 498.203125 445.519531 497.871094 443.4375 499.925781 C 441.355469 501.992188 444.617188 505.632813 446.046875 507.355469 C 447.484375 509.070313 447.121094 509.746094 446.390625 511.085938 C 445.667969 512.425781 443.539063 513.46875 443.699219 516.695313 C 443.988281 522.6875 449.417969 523.691406 453.691406 524.128906 C 457.066406 524.480469 457.265625 526.691406 457.207031 527.601563 C 457.957031 522.148438 454.433594 521.054688 452.996094 520.695313 C 451.519531 520.308594 448.023438 520.53125 447.691406 517.6875 C 447.238281 513.835938 450.535156 512.605469 451.882813 512.148438 C 453.238281 511.703125 454.324219 510.929688 453.253906 508.949219 C 452.183594 506.972656 452.738281 505.941406 453.457031 505.363281 C 454.164063 504.78125 454.304688 505.253906 454.304688 505.253906 C 454.304688 505.253906 454.746094 504.691406 454.777344 503.121094 C 454.808594 501.558594 456.03125 500.652344 457.207031 500.675781 C 458.375 500.695313 459.386719 501.492188 459.839844 500.308594 C 459.839844 500.308594 459.226563 496.1875 461.996094 495.792969 C 465.765625 495.261719 463.058594 499.394531 463.058594 499.394531 C 463.0625 499.394531 465.90625 498.257813 464.410156 495.75 C 462.339844 492.28125 462.507813 489.6875 463.941406 488.648438 C 465.371094 487.621094 467.664063 486.84375 468.582031 482.820313 C 469.496094 478.785156 465.125 478.078125 463.785156 475.875 C 462.453125 473.667969 466.257813 472.230469 466.257813 472.230469 C 463.671875 468.429688 458.273438 470.148438 455.894531 471.164063 C 453.503906 472.164063 449.539063 471.441406 451.039063 469.179688 C 452.523438 466.914063 455.835938 467.660156 455.835938 467.660156 C 452.484375 464.351563 448.078125 466.191406 445.625 467.15625 C 443.945313 467.816406 443.164063 468.792969 442.082031 469.207031 Z M 442.101563 467.210938 "/>
<path style=" stroke:none;fill-rule:evenodd;fill:rgb(10.986328%,10.441589%,30.433655%);fill-opacity:1;" d="M 153.792969 475.722656 C 154.449219 479.167969 155.378906 480.851563 155.378906 480.851563 C 156.957031 491.625 166.054688 492.050781 166.539063 495.179688 C 167.015625 498.296875 172.785156 498.441406 170.808594 505.984375 C 168.832031 513.523438 166.464844 516.582031 164.414063 518.699219 C 162.359375 520.808594 162.917969 523.199219 164.113281 524.707031 C 165.304688 526.203125 167.9375 528.390625 168.640625 536.894531 C 169.332031 545.398438 166.589844 550.898438 170.042969 553.894531 C 173.480469 556.898438 175.757813 560.300781 176.15625 563.875 C 176.15625 563.871094 178.214844 565.402344 179.632813 565.140625 C 179.632813 565.140625 187.980469 566.453125 189.308594 564.867188 C 189.308594 564.867188 187.867188 559.558594 183.007813 557.792969 C 183.007813 557.792969 178.878906 555.496094 178.078125 552.957031 C 177.273438 550.421875 173.109375 537.019531 172.949219 533.589844 C 172.789063 530.164063 172.945313 525.347656 177.628906 518.132813 C 180.484375 513.734375 181.636719 509.019531 184.097656 505.601563 C 184.363281 509.351563 184.582031 515.601563 184.144531 518.015625 C 183.398438 522.078125 183.773438 523.265625 186.074219 523.550781 C 188.371094 523.847656 197.160156 524.019531 202.636719 527.367188 C 208.125 530.714844 213.234375 536.082031 215.820313 536.789063 C 215.820313 536.789063 214.925781 542.351563 217.191406 544.535156 C 217.191406 544.535156 222.878906 545.546875 227.523438 548.984375 C 227.523438 548.984375 226.964844 538.703125 221.703125 533.492188 C 221.703125 533.492188 219.835938 530.316406 215.828125 528.441406 C 211.828125 526.5625 197.589844 519.730469 196.34375 517.304688 C 195.097656 514.875 195.640625 514.378906 197.117188 509.660156 C 197.601563 508.105469 198.324219 505.417969 199.011719 502.820313 C 201.601563 495.992188 208.859375 482.21875 204.140625 473.960938 C 199.109375 465.152344 193.359375 461.707031 198.980469 453.929688 C 204.617188 446.148438 224 432.425781 219.125 408.292969 C 219.125 408.292969 217.890625 402.886719 220.25 399.121094 C 222.417969 395.660156 223.507813 390.367188 223.691406 387.046875 C 224.636719 382.226563 225.34375 378.363281 227.585938 375.972656 C 227.613281 375.925781 227.660156 375.921875 227.691406 375.890625 C 228.417969 376.410156 229.121094 377.1875 229.648438 378.128906 C 229.648438 378.128906 231.964844 384.0625 232.488281 386.34375 C 233.007813 388.625 234.113281 392.5625 230.453125 397.195313 C 230.453125 397.195313 227.789063 399.570313 227.722656 400.070313 C 227.65625 400.574219 228.675781 402.476563 230.464844 403.34375 C 232.269531 404.222656 232.765625 405.257813 233.511719 406.230469 C 234.265625 407.210938 236.582031 408.667969 236.582031 408.667969 C 236.582031 408.667969 236.847656 408.21875 237.214844 407.488281 C 238.148438 408.246094 239.261719 408.953125 239.261719 408.953125 C 239.261719 408.953125 243.453125 401.671875 242.199219 398.386719 C 242.199219 398.386719 242.214844 392.347656 240.878906 389.238281 C 239.539063 386.125 237.804688 382.609375 236.628906 378.757813 C 235.453125 374.898438 232.382813 371.960938 231.902344 371.824219 C 229.765625 371.761719 228.539063 369.148438 226.972656 368.59375 C 225.746094 368.164063 224.78125 368.0625 223.960938 368.222656 C 221.070313 367.304688 219.660156 368.253906 217.964844 370.457031 C 216.625 372.199219 214.410156 375.554688 211.808594 378.996094 C 210.875 378.554688 210 377.800781 209.277344 376.675781 C 208.765625 375.875 208.167969 375.238281 207.507813 374.71875 C 207.5 374.710938 207.5 374.703125 207.492188 374.703125 C 205.832031 372.929688 200.824219 372.15625 196.351563 370.789063 C 191.882813 369.410156 186.078125 366.425781 183.457031 364.945313 C 180.847656 363.460938 179.6875 362.605469 181.171875 360.632813 C 182.640625 358.667969 190.976563 354.867188 192.050781 354.378906 C 193.125 353.894531 195.988281 355.113281 195.988281 355.113281 C 197.621094 355.40625 199.519531 356.585938 202.628906 353.828125 C 205.75 351.066406 204.886719 346.335938 204.5 343.808594 C 204.125 341.289063 201.820313 340.371094 200.601563 340.144531 C 199.390625 339.914063 195.921875 341.09375 193.703125 340.808594 C 191.484375 340.527344 183.289063 338.625 176.328125 337.128906 C 169.371094 335.625 166.960938 336.886719 166.960938 336.886719 C 166.960938 336.886719 160.023438 330.292969 156.023438 331.207031 C 156.023438 331.207031 153.230469 333.453125 153.703125 338.832031 C 153.703125 338.832031 149.140625 341.714844 146.394531 339.03125 C 143.652344 336.34375 149.671875 330.972656 151.1875 330.128906 C 151.1875 330.128906 143.84375 332.792969 144.769531 341.382813 C 144.769531 341.378906 140.175781 344.277344 143.203125 350.0625 C 143.203125 350.0625 131.609375 346.503906 133.054688 359.664063 C 133.054688 359.664063 133.347656 357.035156 135.4375 354.144531 C 137.515625 351.246094 139.941406 356.027344 141.050781 356.789063 C 142.164063 357.554688 142.601563 358.527344 142.796875 359.769531 C 143 361.011719 143.765625 363.957031 144.707031 364.042969 C 145.652344 364.128906 147.722656 365.605469 146.414063 366.679688 C 145.105469 367.753906 143.976563 367.050781 141.988281 364.789063 C 140.003906 362.515625 136.398438 362.335938 134.714844 364.417969 C 133.035156 366.496094 133.046875 369.433594 135.203125 373.113281 C 135.203125 373.113281 138.117188 377.035156 134.953125 378.070313 C 132.023438 379.023438 130.324219 372.199219 130.15625 370.214844 C 130.238281 372.089844 130.832031 380.222656 135.4375 380.59375 C 140.351563 380.992188 140.050781 375.585938 138.851563 373.601563 C 137.65625 371.613281 138.628906 369.167969 139.816406 370.605469 C 139.816406 370.605469 142.375 373.664063 144.722656 374.523438 C 147.070313 375.375 148.070313 376.59375 148.15625 377.484375 C 148.234375 378.375 148.65625 387.261719 137.757813 382.175781 C 137.757813 382.175781 138.027344 384.253906 141.6875 385.515625 C 148.0625 387.722656 150.234375 385.171875 151.296875 387.019531 C 151.296875 387.019531 151.804688 387.574219 152.042969 389.359375 C 152.042969 389.359375 153.257813 393.191406 148.941406 393.117188 C 148.941406 393.117188 137.597656 390.957031 142.425781 398.636719 C 142.425781 398.636719 142.164063 395.898438 144.523438 396.128906 C 147.363281 396.394531 146.523438 396.480469 150.269531 396.652344 C 150.269531 396.652344 152.261719 397.207031 157.152344 395.023438 C 162.039063 392.84375 164.027344 397.824219 161.984375 399.257813 C 159.945313 400.683594 155.039063 401.433594 157.714844 408.085938 C 157.714844 408.085938 157.398438 399.695313 164.90625 402.113281 C 172.058594 404.421875 161.804688 413.347656 156.925781 411.253906 C 156.925781 411.253906 159.292969 414.179688 164.175781 412.679688 C 169.847656 410.9375 174.34375 406.480469 175.378906 407.894531 C 176.417969 409.316406 175.832031 411.710938 173.59375 413.875 C 172.761719 414.652344 171.839844 415.476563 171.042969 416.410156 C 169.683594 417.953125 168.710938 419.808594 169.199219 422.472656 L 169.207031 422.472656 C 169.609375 426.203125 171.386719 430.859375 170.425781 433.46875 C 170.425781 433.46875 156.851563 442.46875 154.007813 459.054688 C 153.480469 462.109375 153.246094 464.8125 153.179688 467.210938 L 153.199219 469.207031 C 152.117188 468.789063 151.332031 467.816406 149.65625 467.15625 C 147.203125 466.191406 142.792969 464.351563 139.441406 467.660156 C 139.441406 467.660156 142.757813 466.914063 144.25 469.179688 C 145.742188 471.441406 141.773438 472.164063 139.390625 471.164063 C 137.007813 470.148438 131.617188 468.429688 129.019531 472.230469 C 129.019531 472.230469 132.828125 473.671875 131.492188 475.875 C 130.152344 478.078125 125.785156 478.785156 126.699219 482.820313 C 127.613281 486.84375 129.910156 487.621094 131.339844 488.648438 C 132.769531 489.6875 132.941406 492.28125 130.878906 495.75 C 129.375 498.257813 132.21875 499.394531 132.21875 499.394531 C 132.21875 499.394531 129.515625 495.261719 133.285156 495.792969 C 136.046875 496.1875 135.441406 500.308594 135.441406 500.308594 C 135.902344 501.492188 136.90625 500.695313 138.082031 500.675781 C 139.253906 500.652344 140.472656 501.558594 140.503906 503.121094 C 140.53125 504.691406 140.976563 505.253906 140.976563 505.253906 C 140.976563 505.253906 141.121094 504.78125 141.828125 505.363281 C 142.546875 505.941406 143.09375 506.972656 142.023438 508.949219 C 140.960938 510.929688 142.042969 511.703125 143.394531 512.148438 C 144.742188 512.601563 148.046875 513.835938 147.589844 517.6875 C 147.253906 520.53125 143.765625 520.308594 142.285156 520.695313 C 140.847656 521.054688 137.316406 522.148438 138.082031 527.601563 C 138.011719 526.691406 138.21875 524.480469 141.589844 524.128906 C 145.867188 523.691406 151.296875 522.6875 151.585938 516.695313 C 151.742188 513.46875 149.613281 512.425781 148.886719 511.085938 C 148.15625 509.746094 147.796875 509.070313 149.234375 507.355469 C 150.664063 505.628906 153.925781 501.992188 151.84375 499.925781 C 149.757813 497.871094 147.011719 498.203125 145.375 496.839844 C 143.742188 495.476563 141.425781 491.4375 143.921875 489.910156 C 146.425781 488.390625 148.019531 488.242188 149.339844 487.617188 C 150.664063 486.988281 151.738281 485.84375 151.523438 480.949219 C 151.335938 476.546875 152.117188 475.679688 153.792969 475.722656 "/>
<path style=" stroke:none;fill-rule:nonzero;fill:rgb(100%,100%,100%);fill-opacity:1;" d="M 233.035156 531.570313 L 230.773438 533.714844 L 227.101563 529.84375 L 226.300781 528.996094 L 226.007813 528.6875 L 225.773438 528.4375 L 225.574219 528.230469 L 225.417969 528.066406 L 225.289063 527.929688 L 225.183594 527.816406 L 225.097656 527.726563 C 225 527.625 224.917969 527.527344 224.847656 527.433594 C 224.777344 527.339844 224.722656 527.242188 224.691406 527.148438 C 224.546875 526.996094 224.417969 526.824219 224.296875 526.628906 C 224.179688 526.4375 224.027344 526.152344 223.835938 525.78125 C 223.0625 524.316406 223.066406 522.699219 223.847656 520.925781 C 224.144531 520.261719 224.542969 519.59375 225.039063 518.921875 C 225.535156 518.25 226.125 517.589844 226.8125 516.9375 C 229.214844 514.65625 231.398438 513.515625 233.355469 513.515625 C 235.027344 513.519531 236.613281 514.3125 238.113281 515.894531 C 239.109375 516.945313 239.753906 518.058594 240.046875 519.234375 C 240.140625 519.59375 240.195313 519.957031 240.214844 520.316406 C 240.234375 520.675781 240.210938 521.035156 240.148438 521.386719 C 240.023438 522.089844 239.738281 522.835938 239.277344 523.632813 C 238.5625 524.886719 237.679688 526.011719 236.625 527.011719 C 235.019531 528.535156 233.265625 529.46875 231.363281 529.8125 Z M 236.003906 517.929688 C 235.144531 517.023438 234.171875 516.667969 233.082031 516.863281 C 231.992188 517.058594 230.753906 517.820313 229.359375 519.140625 C 228.160156 520.277344 227.328125 521.339844 226.855469 522.332031 C 226.238281 523.652344 226.464844 524.871094 227.523438 525.988281 C 228.515625 527.035156 229.65625 527.335938 230.941406 526.898438 C 231.929688 526.554688 233.074219 525.761719 234.382813 524.523438 C 235.554688 523.410156 236.34375 522.304688 236.734375 521.210938 C 237.167969 519.996094 236.921875 518.898438 236.003906 517.929688 Z M 234.6875 536.589844 L 249.644531 525.792969 L 252.484375 527.824219 L 247.105469 545.46875 L 244.214844 543.402344 L 245.457031 539.300781 L 241.054688 536.15625 L 237.578125 538.65625 Z M 248.640625 530.222656 L 243.425781 534.023438 L 246.722656 536.378906 Z M 257.847656 543.078125 L 255.097656 549.128906 L 252.339844 547.875 L 259.574219 531.960938 L 265.890625 534.832031 C 267.699219 535.652344 268.839844 536.511719 269.304688 537.410156 C 269.617188 537.992188 269.761719 538.667969 269.75 539.425781 C 269.734375 540.191406 269.554688 540.941406 269.214844 541.691406 C 268.527344 543.203125 267.6875 544.230469 266.691406 544.757813 C 266.101563 545.0625 265.414063 545.214844 264.636719 545.203125 C 264.839844 545.421875 265.011719 545.628906 265.152344 545.824219 C 265.292969 546.023438 265.394531 546.21875 265.46875 546.410156 C 265.609375 546.765625 265.675781 547.238281 265.671875 547.828125 C 265.65625 548.234375 265.597656 548.652344 265.507813 549.078125 C 265.453125 549.3125 265.382813 549.578125 265.292969 549.859375 C 265.207031 550.144531 265.097656 550.429688 264.96875 550.714844 C 264.734375 551.234375 264.542969 551.738281 264.410156 552.21875 C 264.3125 552.550781 264.238281 552.898438 264.1875 553.261719 L 261.097656 551.855469 C 261.175781 551.441406 261.40625 550.691406 261.789063 549.613281 C 262.179688 548.53125 262.382813 547.707031 262.394531 547.140625 C 262.429688 546.566406 262.304688 546.039063 262.023438 545.5625 C 261.679688 545.015625 261.027344 544.523438 260.066406 544.085938 Z M 259.136719 540.242188 L 262.996094 541.996094 C 263.636719 542.285156 264.144531 542.378906 264.53125 542.269531 C 265.101563 542.109375 265.582031 541.585938 265.980469 540.710938 C 266.417969 539.746094 266.394531 538.988281 265.902344 538.425781 C 265.734375 538.238281 265.402344 538.03125 264.902344 537.804688 L 261.042969 536.046875 Z M 269.039063 554.621094 L 278.726563 538.925781 L 282.128906 539.714844 L 283.910156 558.074219 L 280.449219 557.269531 L 280.027344 553.007813 L 274.757813 551.785156 L 272.5 555.425781 Z M 279.496094 543.402344 L 276.128906 548.90625 L 280.082031 549.824219 Z M 289.796875 558.304688 L 290.242188 540.828125 L 298.273438 541.03125 C 299.535156 541.066406 300.445313 541.261719 301.007813 541.625 C 301.65625 542.050781 302.140625 542.742188 302.464844 543.695313 C 302.691406 544.351563 302.796875 545.027344 302.777344 545.730469 C 302.753906 546.621094 302.539063 547.453125 302.132813 548.230469 C 301.730469 549.003906 301.222656 549.539063 300.609375 549.828125 C 301.964844 550.632813 302.617188 552.023438 302.566406 553.996094 C 302.539063 555.125 302.296875 556.078125 301.839844 556.851563 C 301.445313 557.511719 300.941406 557.957031 300.335938 558.191406 C 299.726563 558.429688 298.832031 558.535156 297.660156 558.503906 Z M 293.089844 548.074219 L 297.210938 548.179688 C 297.632813 548.1875 297.945313 548.171875 298.140625 548.125 C 298.339844 548.082031 298.535156 547.96875 298.730469 547.796875 C 299.183594 547.390625 299.417969 546.820313 299.4375 546.09375 C 299.457031 545.40625 299.261719 544.878906 298.855469 544.519531 C 298.554688 544.273438 298.058594 544.144531 297.375 544.125 L 293.191406 544.019531 Z M 292.90625 555.269531 L 297.027344 555.375 C 297.449219 555.382813 297.765625 555.367188 297.96875 555.320313 C 298.175781 555.277344 298.367188 555.164063 298.546875 554.988281 C 299 554.582031 299.234375 554.007813 299.253906 553.269531 C 299.273438 552.582031 299.078125 552.050781 298.671875 551.6875 C 298.375 551.441406 297.878906 551.3125 297.191406 551.292969 L 293.011719 551.1875 Z M 307.203125 558.515625 L 309.914063 540.265625 L 313.347656 539.652344 L 322.230469 555.816406 L 318.734375 556.445313 L 316.664063 552.695313 L 311.339844 553.652344 L 310.703125 557.886719 Z M 312.386719 544.078125 L 311.464844 550.464844 L 315.457031 549.75 Z M 328.203125 543.011719 L 334.710938 540.433594 L 338.539063 550.089844 L 332.632813 552.433594 C 331.578125 552.851563 330.71875 553.082031 330.054688 553.125 C 329.394531 553.167969 328.730469 553.050781 328.0625 552.785156 C 326.152344 552.027344 324.558594 550.035156 323.28125 546.8125 C 322.449219 544.707031 322.085938 542.828125 322.1875 541.171875 C 322.269531 539.964844 322.640625 538.953125 323.304688 538.148438 C 323.964844 537.335938 324.972656 536.664063 326.324219 536.128906 L 332.097656 533.839844 L 333.246094 536.734375 L 327.785156 538.898438 C 326.613281 539.367188 325.878906 540.019531 325.59375 540.871094 C 325.265625 541.863281 325.480469 543.324219 326.246094 545.253906 C 326.640625 546.25 327.074219 547.117188 327.546875 547.832031 C 328.023438 548.554688 328.484375 549.0625 328.933594 549.351563 C 329.328125 549.609375 329.777344 549.730469 330.285156 549.722656 C 330.796875 549.714844 331.375 549.582031 332.027344 549.324219 L 334.574219 548.3125 L 333.042969 544.445313 L 329.351563 545.90625 Z M 353.113281 529.566406 L 354.800781 532.183594 L 347.6875 536.773438 L 351.597656 542.84375 L 349.050781 544.484375 L 344.105469 536.808594 C 343.398438 535.710938 342.855469 534.773438 342.484375 534.003906 C 342.105469 533.226563 341.886719 532.601563 341.820313 532.125 C 341.605469 530.925781 341.75 529.867188 342.253906 528.949219 C 342.757813 528.039063 343.714844 527.128906 345.113281 526.226563 L 349.246094 523.5625 L 350.929688 526.179688 L 347.128906 528.632813 C 346.5625 528.996094 346.105469 529.332031 345.753906 529.644531 C 345.402344 529.960938 345.175781 530.230469 345.078125 530.457031 C 344.851563 530.835938 344.773438 531.273438 344.839844 531.769531 C 344.90625 532.261719 345.121094 532.792969 345.492188 533.371094 L 346 534.15625 Z M 353.667969 519.507813 L 365.765625 532.128906 L 363.578125 534.226563 L 351.480469 521.605469 Z M 359.703125 525.683594 L 357.667969 515.675781 L 360.542969 512.917969 L 362.230469 523.261719 L 372.4375 525.734375 L 369.554688 528.496094 Z M 359.703125 525.683594 "/>
<path style=" stroke:none;fill-rule:nonzero;fill:rgb(100%,100%,100%);fill-opacity:1;" d="M 278.488281 374.234375 L 276.039063 374.800781 L 273.582031 364.21875 L 271.539063 367.679688 L 270.535156 364.425781 L 272.757813 360.664063 L 275.207031 360.09375 Z M 291.359375 366.285156 L 287.398438 366.585938 C 286.507813 366.652344 285.835938 366.652344 285.394531 366.582031 C 284.949219 366.507813 284.566406 366.328125 284.25 366.039063 C 283.425781 365.332031 282.960938 364.277344 282.855469 362.882813 C 282.730469 361.253906 283.214844 359.960938 284.3125 359 C 284.996094 358.410156 286.082031 358.058594 287.570313 357.941406 C 288.628906 357.863281 289.492188 357.910156 290.164063 358.085938 C 290.832031 358.261719 291.425781 358.601563 291.9375 359.109375 C 292.5625 359.746094 293.070313 360.613281 293.445313 361.722656 C 293.785156 362.734375 293.992188 363.769531 294.074219 364.828125 C 294.199219 366.4375 294.039063 367.914063 293.59375 369.261719 C 293.152344 370.609375 292.386719 371.511719 291.296875 371.972656 C 290.699219 372.226563 289.800781 372.394531 288.601563 372.488281 L 284.257813 372.820313 L 284.0625 370.261719 L 287.660156 369.988281 C 289.257813 369.867188 290.265625 369.601563 290.679688 369.191406 C 290.9375 368.925781 291.128906 368.535156 291.25 368.015625 C 291.375 367.503906 291.410156 366.921875 291.359375 366.285156 Z M 291.164063 363.726563 C 291.085938 362.664063 290.851563 361.84375 290.464844 361.265625 C 290.214844 360.882813 289.886719 360.621094 289.488281 360.488281 C 289.085938 360.351563 288.515625 360.3125 287.773438 360.367188 C 286.921875 360.433594 286.351563 360.597656 286.070313 360.859375 C 285.699219 361.207031 285.539063 361.71875 285.589844 362.402344 C 285.636719 363.007813 285.863281 363.464844 286.269531 363.769531 C 286.535156 363.972656 286.984375 364.046875 287.621094 363.996094 Z M 301.769531 364.839844 C 301.171875 364.324219 300.757813 363.78125 300.53125 363.226563 C 300.300781 362.671875 300.214844 362 300.277344 361.210938 C 300.40625 359.507813 301.128906 358.40625 302.449219 357.910156 C 303.003906 357.707031 304.144531 357.671875 305.871094 357.804688 C 306.429688 357.84375 306.929688 357.890625 307.375 357.941406 C 307.820313 357.992188 308.21875 358.039063 308.574219 358.074219 C 308.820313 358.09375 309.035156 358.136719 309.230469 358.207031 C 309.425781 358.273438 309.621094 358.367188 309.816406 358.480469 C 310.441406 358.847656 310.898438 359.4375 311.183594 360.253906 C 311.390625 360.878906 311.464844 361.542969 311.410156 362.242188 C 311.292969 363.785156 310.605469 364.847656 309.34375 365.421875 C 309.847656 365.824219 310.199219 366.199219 310.398438 366.558594 C 310.757813 367.21875 310.902344 367.996094 310.832031 368.890625 C 310.75 369.949219 310.347656 370.871094 309.621094 371.660156 C 309.269531 372.054688 308.773438 372.3125 308.132813 372.429688 C 307.835938 372.480469 307.445313 372.507813 306.964844 372.511719 C 306.480469 372.515625 305.925781 372.496094 305.304688 372.449219 C 304.933594 372.417969 304.636719 372.394531 304.410156 372.371094 C 303.515625 372.269531 303.042969 372.222656 302.988281 372.21875 C 302.457031 372.175781 301.988281 372.050781 301.59375 371.839844 C 301.195313 371.625 300.859375 371.339844 300.578125 370.980469 C 299.945313 370.136719 299.667969 369.175781 299.75 368.105469 C 299.816406 367.230469 300.074219 366.492188 300.527344 365.886719 C 300.769531 365.550781 301.1875 365.203125 301.769531 364.839844 Z M 305.945313 360.25 C 304.929688 360.171875 304.261719 360.1875 303.945313 360.289063 C 303.378906 360.480469 303.066406 360.996094 303 361.835938 C 302.929688 362.761719 303.183594 363.34375 303.753906 363.59375 C 303.84375 363.628906 304.050781 363.675781 304.375 363.726563 C 304.691406 363.777344 305.125 363.828125 305.675781 363.867188 C 305.992188 363.894531 306.304688 363.914063 306.609375 363.929688 C 306.910156 363.945313 307.144531 363.949219 307.304688 363.9375 C 307.464844 363.933594 307.621094 363.902344 307.777344 363.847656 C 308.285156 363.65625 308.570313 363.148438 308.632813 362.332031 C 308.703125 361.410156 308.417969 360.8125 307.777344 360.539063 C 307.496094 360.417969 306.882813 360.320313 305.945313 360.25 Z M 305.460938 366.25 C 304.425781 366.167969 303.757813 366.191406 303.457031 366.308594 C 302.910156 366.515625 302.601563 367.046875 302.535156 367.910156 C 302.464844 368.863281 302.707031 369.46875 303.265625 369.722656 C 303.359375 369.761719 303.5625 369.800781 303.882813 369.855469 C 304.203125 369.910156 304.632813 369.957031 305.175781 369.996094 C 305.488281 370.023438 305.792969 370.042969 306.089844 370.054688 C 306.386719 370.070313 306.617188 370.074219 306.789063 370.066406 C 306.957031 370.058594 307.109375 370.027344 307.246094 369.964844 C 307.75 369.769531 308.035156 369.238281 308.097656 368.378906 C 308.171875 367.441406 307.890625 366.824219 307.265625 366.535156 C 306.988281 366.417969 306.386719 366.320313 305.460938 366.25 Z M 329.0625 362.535156 L 328.355469 365.011719 L 318.179688 374.523438 L 315.226563 373.679688 L 325.644531 364.226563 L 318.449219 362.171875 L 319.152344 359.703125 Z M 329.0625 362.535156 "/>
<path style=" stroke:none;fill-rule:nonzero;fill:rgb(100%,100%,100%);fill-opacity:1;" d="M 322.984375 533.292969 L 324.492188 532.78125 C 324.945313 533.53125 325.589844 533.761719 326.433594 533.476563 C 327.246094 533.203125 327.617188 532.625 327.527344 531.75 L 329.039063 531.238281 C 329.222656 531.953125 329.253906 532.589844 329.136719 533.144531 C 328.90625 534.230469 328.207031 534.976563 327.042969 535.371094 C 326.164063 535.667969 325.367188 535.636719 324.644531 535.277344 C 324.269531 535.085938 323.941406 534.828125 323.65625 534.503906 C 323.367188 534.175781 323.144531 533.773438 322.984375 533.292969 "/>
</g>
</svg>
